<svg xmlns="http://www.w3.org/2000/svg" version="1.1" xmlns:xlink="http://www.w3.org/1999/xlink" width="2000" height="345" viewBox="0 0 2000 345"><svg xml:space="preserve" width="2000" height="345" data-version="2" data-id="lg_U0msDvftj7r1ZRaS3U" viewBox="0 0 676 345" x="0" y="0"><rect width="100%" height="100%" fill="transparent"></rect><path fill="#31c48d" d="M11.78 316.948v-5.17h29.91v5.17zm.65-27.4v51.41H6.45v-56.59h38.8v5.18zm51.17 51.41h-5.98v-56.59H78.8q7.2 0 12.37 2.31 5.18 2.3 7.97 6.63 2.78 4.32 2.78 10.47 0 5.98-2.78 10.3-2.79 4.33-7.97 6.63-5.17 2.31-12.37 2.31H60.94l2.66-2.75zm39.21 0h-6.54l-14.56-20.53h6.47zm-39.21-54.24v34.03l-2.66-2.83h17.7q8.49 0 12.9-3.72 4.4-3.71 4.4-10.42 0-6.8-4.4-10.51-4.41-3.72-12.9-3.72h-17.7zm57.81 28.05v-5.09h29.91v5.09zm.65-25.22v46.24h34.03v5.17h-40.02v-56.59h38.81v5.18zm63.7 51.9q-6.3 0-12.08-2.06t-8.94-5.3l2.35-4.61q2.99 2.91 8.04 4.9 5.05 1.98 10.63 1.98 5.34 0 8.69-1.34 3.36-1.33 4.93-3.6 1.58-2.26 1.58-5.01 0-3.31-1.9-5.33t-4.97-3.2q-3.07-1.17-6.79-2.06-3.72-.89-7.44-1.9-3.72-1.01-6.83-2.71-3.11-1.69-5.01-4.48-1.9-2.79-1.9-7.32 0-4.2 2.22-7.72 2.22-3.52 6.83-5.66 4.61-2.14 11.8-2.14 4.77 0 9.46 1.33 4.69 1.33 8.09 3.68l-2.02 4.77q-3.64-2.43-7.72-3.56-4.09-1.13-7.89-1.13-5.09 0-8.4 1.37-3.32 1.38-4.9 3.68-1.57 2.31-1.57 5.22 0 3.31 1.9 5.33t5.01 3.16q3.11 1.13 6.83 2.02 3.72.89 7.4 1.94 3.68 1.05 6.79 2.71 3.11 1.65 5.01 4.4 1.9 2.75 1.9 7.2 0 4.12-2.26 7.64-2.26 3.51-6.91 5.66-4.65 2.14-11.93 2.14m75.51-.49v-56.59h5.9v56.59zm-35.41-56.59v56.59h-5.98v-56.59zm35.98 25.23v5.25h-36.62v-5.25zm48.34 31.85q-6.38 0-11.8-2.14-5.42-2.15-9.38-6.03-3.96-3.88-6.18-9.13-2.23-5.26-2.23-11.48 0-6.23 2.23-11.48 2.22-5.26 6.22-9.14 4-3.88 9.42-6.02 5.42-2.14 11.81-2.14 6.14 0 11.56 2.06 5.41 2.06 9.13 6.18l-3.8 3.8q-3.47-3.55-7.68-5.13-4.2-1.58-9.05-1.58-5.1 0-9.46 1.74-4.37 1.74-7.6 4.93-3.24 3.2-5.05 7.44-1.82 4.24-1.82 9.34 0 5.09 1.82 9.34 1.81 4.24 5.05 7.43 3.23 3.2 7.6 4.94 4.36 1.73 9.46 1.73 4.85 0 9.05-1.61 4.21-1.62 7.68-5.18l3.8 3.8q-3.72 4.13-9.13 6.23-5.42 2.1-11.65 2.1m30.73-.49h-6.23l25.87-56.59h5.9l25.87 56.59h-6.3l-23.77-53.11h2.42zm40.42-15.11h-36.46l1.78-4.85h32.9zm26.35 15.11h-5.98v-56.59h21.18q7.2 0 12.37 2.31 5.18 2.3 7.97 6.63 2.79 4.32 2.79 10.47 0 5.98-2.79 10.3-2.79 4.33-7.97 6.63-5.17 2.31-12.37 2.31h-17.86l2.66-2.75zm39.22 0h-6.55l-14.56-20.53h6.47zm-39.22-54.24v34.03l-2.66-2.83h17.7q8.49 0 12.9-3.72 4.4-3.71 4.4-10.42 0-6.8-4.4-10.51-4.41-3.72-12.9-3.72h-17.7zm58.46 54.24h-5.99v-56.59h21.19q7.19 0 12.36 2.31 5.18 2.3 7.97 6.63 2.79 4.32 2.79 10.47 0 5.98-2.79 10.3-2.79 4.33-7.97 6.63-5.17 2.31-12.36 2.31h-17.87l2.67-2.75zm39.21 0h-6.55l-14.55-20.53h6.46zm-39.21-54.24v34.03l-2.67-2.83h17.7q8.49 0 12.9-3.72 4.4-3.71 4.4-10.42 0-6.8-4.4-10.51-4.41-3.72-12.9-3.72h-17.7zm77.2 54.73q-6.38 0-11.84-2.14-5.46-2.15-9.46-6.07-4-3.92-6.22-9.13-2.23-5.22-2.23-11.44 0-6.23 2.23-11.44 2.22-5.22 6.22-9.14 4-3.92 9.42-6.06 5.42-2.14 11.88-2.14 6.39 0 11.81 2.14 5.41 2.14 9.42 6.02 4 3.88 6.22 9.14 2.22 5.25 2.22 11.48 0 6.22-2.22 11.48-2.22 5.25-6.22 9.13-4.01 3.88-9.42 6.03-5.42 2.14-11.81 2.14m0-5.34q5.1 0 9.42-1.73 4.33-1.74 7.52-4.94 3.2-3.19 4.97-7.43 1.78-4.25 1.78-9.34 0-5.1-1.78-9.34-1.77-4.24-4.97-7.44-3.19-3.19-7.52-4.93-4.32-1.74-9.42-1.74-5.09 0-9.45 1.74-4.37 1.74-7.56 4.93-3.2 3.2-5.02 7.44-1.82 4.24-1.82 9.34 0 5.01 1.82 9.3 1.82 4.28 5.02 7.47 3.19 3.2 7.56 4.94 4.36 1.73 9.45 1.73m60.07 4.85h-5.98v-51.41h-19.89v-5.18h45.76v5.18h-19.89zm45.03.49q-6.3 0-12.08-2.06t-8.94-5.3l2.35-4.61q2.99 2.91 8.04 4.9 5.06 1.98 10.63 1.98 5.34 0 8.7-1.34 3.35-1.33 4.93-3.6 1.57-2.26 1.57-5.01 0-3.31-1.9-5.33t-4.97-3.2q-3.07-1.17-6.79-2.06-3.72-.89-7.44-1.9-3.72-1.01-6.83-2.71-3.11-1.69-5.01-4.48-1.9-2.79-1.9-7.32 0-4.2 2.22-7.72 2.23-3.52 6.83-5.66 4.61-2.14 11.81-2.14 4.77 0 9.46 1.33 4.69 1.33 8.08 3.68l-2.02 4.77q-3.64-2.43-7.72-3.56t-7.88-1.13q-5.1 0-8.41 1.37-3.32 1.38-4.89 3.68-1.58 2.31-1.58 5.22 0 3.31 1.9 5.33t5.01 3.16q3.12 1.13 6.83 2.02 3.72.89 7.4 1.94 3.68 1.05 6.79 2.71 3.12 1.65 5.02 4.4 1.9 2.75 1.9 7.2 0 4.12-2.27 7.64-2.26 3.51-6.91 5.66-4.65 2.14-11.93 2.14"></path><path fill="#ff851b" d="M406.643 147.357c1.219-9.088-2.375-18.423-9.89-25.659l-8.017-7.748 65.814-36.458c3.974-2.211 5.134-5.06 5.374-7.098.561-4.159-2.336-8.093-7.414-9.435l-13.084-3.486c-.276-.078-.886-.397-1.584-1.072a5.494 5.494 0 0 1-1.353-2.01l-2.177-10.047a18.132 18.132 0 0 0-12.223-12.65l-12.584-3.22a8.242 8.242 0 0 1-3.52-3.347l-3.957-12.956c-1.515-5.03-5.518-7.764-9.683-7.088-2 .336-4.836 1.594-6.883 5.613l-34.19 67.02-8.018-7.748c-7.515-7.263-16.968-10.536-25.981-9.009-8.986 1.528-16.848 7.734-21.552 17.074l-75.926 150.765c-6.643 13.192-4.03 19.852-.649 23.119s10.125 5.652 23.11-1.439l148.087-81.027c9.146-4.992 15.08-13.061 16.3-22.121M393.739 28.826a19.505 19.505 0 0 0 12.57 12.012l12.611 3.22c.276.05.913.341 1.612 1.043.754.73 1.18 1.519 1.269 1.93l2.205 10.046a18.406 18.406 0 0 0 12.141 12.706l3.947 1.06-59.037 32.687c-.599.34-2.14.146-2.644-.34l-2.123-2.052 45.54-31.44a3.209 3.209 0 0 0-3.661-5.268l-36.96 25.524 33.696-34.865a3.206 3.206 0 0 0-4.61-4.455l-33.694 34.893 23.707-38.871a3.187 3.187 0 1 0-5.442-3.314l-29.08 47.617-3.464-3.32c-.503-.486-.75-2.02-.43-2.63l30.654-60.092zm-157.637 210.41a24.725 24.725 0 0 1-7.642 2.988c.169-1.377.84-3.889 2.753-7.74l21.633-42.903 6.984 6.75a6.401 6.401 0 0 0 8.882-9.219l-9.834-9.503 24.104-47.863 18.997 18.36a6.401 6.401 0 0 0 8.855-9.219l-21.847-21.113 16.584-32.897 27.406 26.513a6.41 6.41 0 0 0 8.91-9.219l-28.802-27.808q2.874-2.22 6.326-2.829c5.013-.855 10.323 1.143 14.932 5.598l53.527 51.703c4.61 4.482 6.76 9.72 6.104 14.76-.683 5.04-4.15 9.523-9.786 12.614l-11.895 6.522-29.893-28.889a6.401 6.401 0 0 0-8.882 9.219l27.014 26.08-91.056 49.83-11.734-11.34a6.41 6.41 0 0 0-8.91 9.22l8.884 8.558z"></path><path fill="#ff851b" d="M311.761 195.191c2.457-2.542 2.388-6.58-.155-9.064l-22.991-22.193a6.401 6.401 0 0 0-8.883 9.191l22.992 22.22c2.542 2.43 6.58 2.361 9.064-.154"></path></svg></svg>